<?xml version="1.0"?>
<svg version="1.1" xmlns="http://www.w3.org/2000/svg" width="1448" height="673" viewBox="0 0 1448 673">
<path d="M0,0 L135,0 L154,2 L178,7 L193,12 L205,17 L222,26 L236,36 L247,45 L262,60 L272,74 L280,88 L285,98 L291,116 L294,128 L296,146 L296,174 L292,192 L286,203 L277,214 L265,224 L251,233 L235,241 L226,245 L224,244 L234,229 L243,210 L248,195 L252,177 L253,168 L253,144 L248,121 L241,104 L232,90 L223,80 L216,73 L203,64 L187,56 L172,51 L160,48 L136,45 L95,43 L55,43 L49,66 L43,89 L35,122 L26,162 L22,179 L13,182 L5,184 L1,176 L1,174 L-1,174 L-8,160 L-17,149 L-26,141 L-34,137 L-39,135 L-46,135 L-51,137 L-52,140 L-52,148 L-47,157 L-39,165 L-29,172 L-16,180 L7,191 L11,193 L21,191 L59,181 L91,173 L123,166 L148,160 L175,154 L202,148 L207,148 L209,150 L211,174 L215,239 L215,250 L198,255 L177,262 L144,270 L113,278 L101,282 L84,287 L56,298 L37,308 L25,316 L16,323 L12,324 L10,317 L6,283 L3,254 L-3,206 L-3,201 L-22,210 L-36,220 L-44,227 L-51,237 L-54,242 L-57,252 L-57,279 L-63,274 L-74,260 L-82,249 L-87,239 L-87,232 L-83,221 L-77,213 L-70,206 L-56,198 L-41,193 L-30,191 L-15,190 L-31,186 L-43,181 L-59,173 L-69,165 L-76,156 L-78,151 L-78,138 L-73,129 L-64,121 L-54,117 L-40,117 L-33,119 L-25,123 L-15,132 L-8,143 L-4,151 L-3,3 Z " fill="#F4486F" transform="translate(301,242)"></path>
<path d="M0,0 L5,0 L7,2 L9,26 L13,91 L13,102 L-4,107 L-25,114 L-58,122 L-89,130 L-101,134 L-118,139 L-146,150 L-165,160 L-177,168 L-186,175 L-190,176 L-192,169 L-196,135 L-199,106 L-199,93 L-200,79 L-201,75 L-202,69 L-203,62 L-203,52 L-200,49 L-195,48 L-196,45 L-200,42 L-195,43 L-191,45 L-181,43 L-143,33 L-111,25 L-79,18 L-54,12 L-27,6 Z " fill="#ED4673" transform="translate(503,390)"></path>
<path d="M0,0 L20,0 L36,4 L48,11 L60,22 L68,35 L72,49 L72,70 L70,80 L66,91 L59,101 L49,111 L33,119 L20,122 L1,122 L-15,117 L-25,111 L-35,102 L-42,91 L-48,76 L-49,69 L-49,51 L-47,42 L-42,31 L-36,22 L-25,11 L-15,5 Z " fill="#FBFAFC" transform="translate(847,420)"></path>
<path d="M0,0 L73,0 L93,4 L109,11 L121,19 L133,31 L142,45 L146,56 L150,68 L150,100 L148,111 L141,130 L134,141 L124,152 L111,161 L100,166 L91,169 L76,172 L-1,172 L-1,170 L2,167 L2,3 Z M30,5 L30,167 L68,167 L80,164 L93,157 L102,149 L111,135 L116,124 L120,110 L122,99 L122,76 L120,62 L115,47 L107,32 L96,19 L86,12 L74,7 L66,5 Z " fill="#41087B" transform="translate(635,368)"></path>
<path d="M0,0 L13,2 L56,12 L93,20 L124,27 L123,35 L117,58 L112,80 L111,81 L106,81 L112,54 L113,51 L108,49 L103,44 L100,39 L99,36 L99,27 L91,26 L38,14 L23,11 L21,10 L20,15 L14,22 L8,25 L-1,25 L-3,36 L-10,66 L-13,78 L-13,81 L-8,64 L-2,42 L1,29 L10,28 L19,23 L24,15 L36,17 L58,22 L67,24 L94,30 L95,38 L100,47 L105,52 L109,55 L108,65 L104,82 L88,86 L58,92 L44,95 L44,92 L57,90 L60,89 L62,84 L62,74 L58,69 L51,65 L53,53 L57,55 L58,61 L67,63 L66,54 L62,49 L57,47 L57,40 L54,41 L53,45 L41,46 L36,50 L34,54 L34,61 L38,67 L45,72 L43,83 L39,81 L37,75 L28,73 L29,82 L31,87 L36,89 L40,91 L39,96 L17,102 L-10,108 L-21,111 L-26,111 L-25,104 L-18,73 L-12,49 L-6,23 L-1,2 Z " fill="#F9A01C" transform="translate(365,305)"></path>
<path d="M0,0 L2,1 L-10,27 L-18,41 L-28,54 L-41,68 L-52,77 L-62,84 L-80,94 L-103,103 L-129,109 L-141,111 L-155,112 L-255,112 L-255,110 L-236,99 L-215,89 L-202,85 L-192,81 L-172,75 L-142,67 L-107,58 L-87,52 L-74,47 L-61,42 L-34,29 L-19,19 L-6,8 Z " fill="#7B278C" transform="translate(587,455)"></path>
<path d="M0,0 L17,0 L28,3 L39,10 L47,18 L52,28 L55,41 L56,108 L60,114 L67,114 L73,112 L71,116 L67,119 L61,121 L45,121 L37,117 L31,110 L29,107 L21,114 L11,119 L-1,122 L-18,122 L-31,118 L-39,112 L-43,107 L-46,99 L-46,88 L-42,78 L-32,68 L-17,61 L5,55 L27,50 L29,50 L28,28 L24,17 L21,12 L14,7 L11,6 L1,6 L-7,9 L-13,16 L-17,27 L-20,32 L-23,34 L-31,34 L-36,30 L-37,28 L-37,22 L-33,16 L-26,9 L-14,3 Z " fill="#410A7B" transform="translate(1155,420)"></path>
<path d="M0,0 L17,0 L29,5 L38,13 L44,25 L46,35 L47,107 L50,114 L61,114 L60,117 L51,121 L35,121 L28,117 L22,110 L21,104 L20,32 L17,22 L11,15 L3,11 L-8,11 L-18,15 L-26,22 L-30,28 L-31,31 L-31,114 L-30,117 L-28,118 L-28,120 L-62,120 L-58,114 L-58,10 L-60,5 L-44,4 L-32,3 L-31,21 L-24,13 L-13,5 L-7,2 Z " fill="#400779" transform="translate(993,420)"></path>
<path d="M0,0 L20,0 L36,4 L48,11 L60,22 L68,35 L72,49 L72,70 L70,80 L66,91 L59,101 L49,111 L33,119 L20,122 L1,122 L-15,117 L-25,111 L-35,102 L-42,91 L-48,76 L-49,69 L-49,51 L-47,42 L-42,31 L-36,22 L-25,11 L-15,5 Z M5,5 L-3,9 L-11,16 L-19,32 L-21,40 L-22,52 L-22,78 L-17,96 L-9,108 L-2,114 L5,117 L17,117 L27,113 L34,107 L39,99 L44,84 L46,75 L46,46 L42,30 L36,18 L28,10 L24,9 L24,7 L17,5 Z " fill="#40087A" transform="translate(847,420)"></path>
<path d="M0,0 L8,0 L18,5 L22,10 L23,14 L23,28 L17,39 L8,49 L1,57 L-5,64 L-9,63 L-27,53 L-40,44 L-46,37 L-49,30 L-49,22 L-46,14 L-41,9 L-37,6 L-22,6 L-13,13 L-12,8 L-5,2 Z " fill="#FDFAFB" transform="translate(432,432)"></path>
<path d="M0,0 L4,0 L5,105 L8,111 L9,112 L16,112 L21,111 L19,115 L10,119 L-7,119 L-16,113 L-20,105 L-21,102 L-22,5 L-24,5 L-24,3 Z " fill="#3F0779" transform="translate(1083,422)"></path>
<path d="M0,0 L2,0 L2,47 L-5,54 L-13,58 L-20,60 L-29,60 L-37,57 L-43,52 L-47,44 L-48,41 L-48,30 L-43,20 L-36,13 L-23,7 Z " fill="#F9F8FB" transform="translate(1182,474)"></path>
<path d="M0,0 L8,0 L15,4 L16,6 L23,0 L32,0 L39,6 L40,8 L40,17 L36,25 L23,36 L17,41 L15,41 L15,39 L11,37 L-2,26 L-8,18 L-8,8 L-2,1 Z " fill="#FB4B69" transform="translate(1058,365)"></path>
</svg>