<?xml version="1.0"?>
<svg version="1.1" xmlns="http://www.w3.org/2000/svg" viewBox="13 41 253 253">
<path d="M0,0 L137,0 L152,3 L166,10 L174,17 L181,27 L186,38 L188,46 L188,186 L185,198 L178,211 L169,221 L159,227 L150,231 L137,233 L-1,233 L-18,229 L-29,223 L-37,216 L-44,206 L-46,202 L-46,32 L-41,23 L-32,13 L-23,7 L-15,3 Z " fill="#FCFBFC" transform="translate(46,51)"></path>
<path d="M0,0 L72,0 L86,2 L97,6 L113,14 L124,22 L133,31 L142,45 L146,54 L149,67 L149,92 L145,102 L138,110 L129,117 L114,124 L116,119 L123,105 L127,88 L127,70 L122,54 L113,41 L102,33 L94,29 L81,25 L69,23 L50,22 L27,22 L22,41 L20,51 L18,58 L16,69 L12,84 L11,91 L2,93 L-8,77 L-17,69 L-25,69 L-27,71 L-26,76 L-22,82 L-12,89 L0,95 L5,97 L17,95 L33,91 L62,84 L84,79 L102,75 L106,76 L108,105 L108,126 L91,132 L75,136 L60,140 L38,147 L27,152 L16,158 L7,164 L4,163 L1,133 L-1,120 L-2,102 L-17,110 L-25,118 L-29,127 L-29,141 L-35,136 L-44,123 L-44,114 L-40,108 L-33,102 L-22,98 L-11,96 L-23,92 L-34,86 L-39,80 L-40,78 L-40,68 L-35,62 L-30,59 L-18,59 L-9,65 L-4,72 L-3,75 L-2,2 Z " fill="#FC4D6B" transform="translate(61,85)"></path>
<path d="M0,0 L23,0 L42,1 L59,4 L72,9 L82,16 L88,21 L96,33 L101,49 L101,67 L96,87 L89,100 L88,102 L105,93 L108,93 L109,95 L114,90 L118,87 L115,96 L108,108 L100,118 L90,127 L76,135 L63,140 L55,142 L45,143 L-11,143 L-6,139 L5,133 L6,130 L2,129 L14,124 L35,117 L61,111 L79,105 L81,105 L78,55 L66,57 L51,60 L35,64 L1,72 L-19,77 L-24,76 L-36,71 L-46,64 L-51,59 L-55,54 L-54,49 L-52,47 L-44,47 L-34,56 L-26,69 L-25,71 L-16,70 L-16,63 L-12,48 L-9,32 L-7,28 L-5,16 L-1,1 Z " fill="#FDF7F6" transform="translate(88,106)"></path>
<path d="M0,0 L4,1 L6,30 L6,51 L-11,57 L-27,61 L-42,65 L-64,72 L-75,77 L-86,83 L-95,89 L-98,88 L-101,58 L-102,55 L-102,27 L-100,22 L-103,21 L-94,22 L-57,13 L-26,6 L-13,3 Z " fill="#ED4373" transform="translate(163,160)"></path>
<path d="M0,0 L9,1 L34,6 L49,10 L62,12 L64,13 L62,23 L58,40 L55,41 L57,29 L58,25 L54,24 L51,19 L51,13 L44,12 L15,6 L11,5 L9,10 L5,12 L0,12 L-2,23 L-4,31 L-4,35 L1,15 L11,10 L13,7 L38,12 L48,14 L52,24 L56,27 L54,41 L45,44 L32,47 L29,46 L32,43 L31,36 L27,33 L27,27 L30,28 L30,31 L35,31 L33,26 L30,23 L30,19 L27,19 L27,22 L20,24 L18,26 L19,33 L28,40 L26,44 L23,44 L23,42 L20,41 L20,38 L14,37 L16,43 L20,46 L19,50 L-12,57 L-11,47 L-4,17 Z " fill="#FAA41E" transform="translate(92,117)"></path>
<path d="M0,0 L1,2 L-7,18 L-16,30 L-23,37 L-37,46 L-54,53 L-62,55 L-72,56 L-128,56 L-123,52 L-107,44 L-82,36 L-68,32 L-52,28 L-32,21 L-15,13 L-5,6 Z " fill="#7A298E" transform="translate(205,193)"></path>
<path d="M0,0 L5,0 L10,5 L23,13 L28,15 L30,17 L29,27 L28,40 L27,40 L26,22 L11,30 L3,38 L-1,47 L-1,61 L-7,56 L-16,43 L-16,34 L-12,28 L-5,22 L6,18 L17,16 L5,12 L-4,7 L-3,3 Z " fill="#EF4873" transform="translate(33,165)"></path>
<path d="M0,0 L8,0 L13,4 L14,6 L14,14 L8,22 L0,31 L-6,30 L-17,23 L-22,17 L-23,15 L-23,8 L-19,3 L-17,2 L-10,2 L-5,4 Z " fill="#FDF6F8" transform="translate(125,182)"></path>
</svg>
